<svg xmlns="http://www.w3.org/2000/svg" viewBox="0 0 512 512">
  <defs>n    <filter id="shadow" x="-20%" y="-20%" width="140%" height="140%">n      <feGaussianBlur in="SourceAlpha" stdDeviation="15" />n      <feOffset dx="0" dy="10" result="offsetblur" />n      <feComponentTransfer>n        <feFuncA type="linear" slope="0.3" />n      </feComponentTransfer>n      <feMerge>n        <feMergeNode />n        <feMergeNode in="SourceGraphic" />n      </feMerge>n    </filter>n  </defs>n  <path d="M60 180 L256 240 L452 180 L452 400 L256 460 L60 400 Z" fill="#f8fafc" stroke="#e2e8f0" stroke-width="4" filter="url(#shadow)"/>n  <path d="M60 250 L452 250 M60 330 L452 330 M190 220 L190 440 M320 200 L320 420" stroke="#cbd5e1" stroke-width="2" stroke-linecap="round"/>n  <g transform="translate(0, -30)" filter="url(#shadow)">n    <path d="M256 80c-55.2 0-100 44.8-100 100 0 70 100 180 100 180s100-110 100-180c0-55.2-44.8-100-100-100z" fill="#ef4444"/>n    <circle cx="256" cy="180" r="35" fill="#fff"/>
  <!-- Map Perspective Base -->
  <path d="M60 380 L256 460 L452 380 L256 300 Z" fill="#F8FAFC" stroke="#CBD5E1" stroke-width="8"/>
  <path d="M60 380 L256 460 L256 475 L60 395 Z" fill="#94A3B8" />
  <path d="M256 460 L452 380 L452 395 L256 475 Z" fill="#64748B" />
  
  <!-- Map Grid Lines -->
  <path d="M158 340 L354 420" stroke="#E2E8F0" stroke-width="4"/>
  <path d="M354 340 L158 420" stroke="#E2E8F0" stroke-width="4"/>

  <!-- Red Location Pin (The "Budget" location icon) -->
  <filter id="shadow" x="-20%" y="-20%" width="140%" height="140%">
    <feGaussianBlur in="SourceAlpha" stdDeviation="10" />
    <feOffset dx="0" dy="15" />
    <feComponentTransfer>
      <feFuncA type="linear" slope="0.3" />
    </feComponentTransfer>
    <feMerge>
      <feMergeNode />
      <feMergeNode in="SourceGraphic" />
    </feMerge>
  </filter>
  
  <g filter="url(#shadow)">
    <path d="M256 40 C180 40 120 100 120 176 C120 280 256 420 256 420 C256 420 392 280 392 176 C392 100 332 40 256 40 Z" fill="#EF4444" />
    <circle cx="256" cy="176" r="60" fill="white" opacity="0.9" />
    <circle cx="256" cy="176" r="30" fill="#EF4444" />
>>>>>>> 5c7da9e (feat: implement localized routing, luxury design system, SEO metadata, PWA support, and real-time property filtering)
  </g>
</svg>
